<?xml version="1.0" encoding="utf-8"?>
<!-- Generator: Adobe Illustrator 20.1.0, SVG Export Plug-In . SVG Version: 6.00 Build 0)  -->
<svg version="1.1" id="design" xmlns="http://www.w3.org/2000/svg" xmlns:xlink="http://www.w3.org/1999/xlink" x="0px" y="0px"
	 viewBox="0 0 408 30" style="enable-background:new 0 0 408 30;" xml:space="preserve">
<style type="text/css">
	.st0{fill:#231815;}
	.st1{fill:#DA3915;}
	.st2{fill:#333333;}
</style>
<g>
	<g>
		<g>
			<path d="M60.8,5.8c0,1.3,0,1.5,0,1.8c0,0.4,0,0.5-0.3,0.7c-0.2,0.1-0.2,0.1-0.5,0.2c0-0.2-0.1-0.4-0.5-0.7v0c0.2,0,0.3,0,0.5,0
				c0.1,0,0.2,0,0.3-0.1c0,0,0-0.1,0-0.5c0-0.2,0-0.6,0-1.1c-0.1,0.1-0.5,0.4-0.6,0.4c0,0.1,0,0.3-0.1,0.3c0,0-0.1,0-0.1-0.1
				l-0.4-0.5c0.2,0,0.2,0,0.3-0.1c0.1,0,0.4-0.2,0.8-0.4l0-1.4c-0.1,0-0.5,0-0.8,0.1l-0.1-0.3c0.4,0,0.9,0,0.9,0
				c0-0.7,0-1.1-0.1-1.5l0.6,0.2c0.1,0,0.1,0,0.1,0.1C61,3,61,3,60.8,3.2v1H61L61.1,4c0,0,0.1-0.1,0.1-0.1c0,0,0,0,0.1,0.1l0.3,0.2
				c0,0,0.1,0.1,0.1,0.1c0,0.1-0.1,0.1-0.1,0.1h-0.8l0,1.1C60.9,5.4,61.6,5,61.7,5l0,0C61.4,5.3,61.1,5.6,60.8,5.8z M64.6,8.5
				c-0.6-0.2-1.1-0.6-1.5-1.1c-0.4,0.4-0.9,0.8-2,1.1l0,0c0.7-0.3,1.2-0.8,1.7-1.4c-0.3-0.4-0.5-1-0.6-1.7c-0.2,0-0.3,0-0.5,0.1
				l-0.1-0.3c0.4,0,0.9,0,0.9,0h0.2V4.1h-0.4c-0.2,0-0.4,0-0.7,0.1l-0.1-0.3c0.4,0,0.9,0,0.9,0h0.3c0-0.3,0-0.8,0-0.9
				c0,0-0.1-0.3-0.1-0.3l0.6,0.2c0,0,0.1,0,0.1,0.1c0,0.1-0.2,0.2-0.2,0.2v0.8h0.8l0.3-0.4c0,0,0.1-0.1,0.1-0.1c0,0,0.1,0,0.1,0.1
				l0.4,0.4C65,3.9,65,3.9,65,4c0,0.1,0,0.1-0.1,0.1h-1.7v1.2h0.5L64,5.1C64,5,64,5,64.1,5c0,0,0.1,0,0.1,0.1l0.3,0.3
				c0,0,0,0.1,0,0.1c0,0.1-0.2,0.2-0.3,0.2c-0.3,0.6-0.6,1.1-0.9,1.5c0.3,0.3,0.9,0.6,1.8,0.7v0C64.9,8.1,64.8,8.2,64.6,8.5z
				 M62.4,5.4c0.1,0.5,0.3,1,0.6,1.4c0.4-0.6,0.6-1.1,0.7-1.4H62.4z"/>
			<path d="M67.1,6.6c0.8-1,1.3-2.1,1.4-2.5L69,4.5c0,0,0,0,0,0.1c0,0.1-0.1,0.1-0.2,0.1c-0.1,0.2-0.2,0.3-0.2,0.4l0.1,0
				c0,0,0.1,0,0.1,0.1c0,0.1-0.1,0.1-0.1,0.2c0,0.4,0,2.8,0,2.8c0,0.2-0.2,0.2-0.3,0.2c0,0-0.2,0-0.2-0.1c0-0.1,0-0.5,0-0.6
				c0-0.6,0-1.6,0-2.1C67.9,6,67.5,6.4,67.1,6.6L67.1,6.6z M67.2,4.4c0.7-0.6,1.2-1.3,1.3-1.6L69,3.1c0,0,0,0.1,0,0.1
				c0,0.1-0.1,0.1-0.2,0.1C68.4,3.7,67.9,4.2,67.2,4.4L67.2,4.4z M68.7,7.6c0.3-0.8,0.4-1.7,0.4-2.5c0-0.1,0-0.1,0-0.2l0.6,0.2
				c0,0,0.1,0,0.1,0.1c0,0.1-0.1,0.1-0.2,0.2C69.3,6.4,69.1,7.2,68.7,7.6L68.7,7.6z M70.6,4.1l0.1-0.2c0,0,0.1-0.1,0.1-0.1
				s0.1,0,0.1,0.1l0.2,0.2c0,0,0.1,0.1,0.1,0.1c0,0.1-0.1,0.1-0.1,0.1h-1.1c0,1.3,0,1.4,0,2.6c0,0.2,0,1.2,0,1.3
				c0,0.2-0.2,0.2-0.3,0.2c-0.2,0-0.2-0.1-0.2-0.2c0-0.1,0-0.5,0-0.5c0-0.7,0-1.5,0-2.2V4.2h-0.2c-0.1,0-0.4,0-0.7,0.1l-0.1-0.3
				c0.3,0,0.7,0,1,0c0-0.3,0-1.2-0.1-1.4l0.6,0.1c0.1,0,0.1,0,0.1,0.1c0,0.1-0.1,0.1-0.2,0.2v1H70.6z M70.4,4.8
				c0.7,0.8,0.7,1.7,0.7,1.8C71.1,6.9,71,7,70.9,7c-0.2,0-0.2-0.1-0.3-0.9C70.6,5.9,70.5,5.4,70.4,4.8L70.4,4.8z M70.4,3
				C70.6,3.1,71,3.2,71,3.6c0,0.2-0.1,0.3-0.2,0.3c-0.1,0-0.2,0-0.2-0.4C70.5,3.2,70.4,3.1,70.4,3L70.4,3z M71.5,5
				c-0.1,0-0.3,0-0.5,0l-0.1-0.2c0.4,0,0.7,0,0.7,0h0.6l0.2-0.3c0,0,0-0.1,0.1-0.1c0,0,0.1,0,0.1,0.1l0.3,0.3c0,0,0.1,0.1,0.1,0.1
				c0,0.1,0,0.1-0.1,0.1H72c0,0.7,0,1.4,0,2c0,0.1,0,0.7,0,0.8c0,0.3-0.1,0.4-0.3,0.5c-0.1,0.1-0.3,0.1-0.4,0.1
				C71.3,8.1,71,8,70.9,7.9v0c0.2,0,0.3,0,0.5,0c0.3,0,0.3,0,0.3-0.2V5H71.5z M72.1,3.3l0.1-0.2c0,0,0.1-0.1,0.1-0.1
				c0,0,0.1,0,0.1,0.1l0.2,0.2c0,0,0.1,0.1,0.1,0.1c0,0.1,0,0.1-0.1,0.1h-1c0,0-0.2,0-0.3,0l-0.1-0.2c0.2,0,0.4,0,0.5,0H72.1z"/>
			<path d="M79.1,3.9c-0.8,0-1,0-1.4,0.3c-0.6,0.4-1,1.2-1,1.9c0,1.1,1.1,1.3,1.6,1.5c0.1,0,0.3,0.1,0.3,0.4C78.6,8,78.4,8,78.4,8
				c-0.6,0-2-0.5-2-1.9c0-0.3,0-0.8,0.5-1.4c0.2-0.2,0.3-0.4,0.8-0.8c-0.6,0.1-2,0.6-2.2,0.7c-0.3,0.2-0.3,0.2-0.4,0.2
				c-0.2,0-0.4-0.2-0.4-0.6c0-0.2,0-0.3,0.1-0.3c0.1,0.2,0.2,0.3,0.5,0.3c0.1,0,0.3,0,0.9-0.2c0.7-0.2,1.9-0.5,2.6-0.7
				c0.1,0,0.1,0,0.2,0c0.1,0,0.5,0.1,0.5,0.3C79.4,3.9,79.2,3.9,79.1,3.9z M78.9,5.5c-0.1,0-0.1,0-0.3-0.3c-0.1-0.2-0.3-0.4-0.6-0.7
				c0.4,0.1,1,0.4,1,0.8C79.1,5.4,79,5.5,78.9,5.5z M79.6,5.2c-0.1,0-0.1,0-0.3-0.3c-0.1-0.2-0.4-0.5-0.6-0.6c0.4,0,1.1,0.3,1.1,0.7
				C79.8,5.2,79.7,5.2,79.6,5.2z"/>
			<path d="M86.7,5.3l0.2-0.4c0,0,0.1-0.1,0.1-0.1c0,0,0.1,0,0.1,0.1l0.4,0.4c0,0,0.1,0.1,0.1,0.1c0,0.1,0,0.1-0.1,0.1h-2.3
				c0.5,0.9,1.6,1.7,2.6,1.9v0c-0.2,0.1-0.5,0.3-0.6,0.5c-1.3-0.7-1.9-1.9-2-2.4h0c0,0.3,0,0.9,0,1.1c0,0.4,0,1.5,0,1.6
				c0,0.2-0.2,0.3-0.3,0.3c-0.2,0-0.2-0.1-0.2-0.2c0-0.1,0-0.8,0-0.9c0-0.3,0-0.8,0-1.3C84,7,83,7.8,82.2,8v0
				c1.2-0.8,2.2-2.1,2.3-2.5H83c-0.1,0-0.4,0-0.7,0.1l-0.1-0.3c0.4,0,0.8,0,0.9,0h1.6c0-0.4,0-0.9,0-1.3h-1.1c-0.1,0-0.4,0-0.7,0.1
				l-0.1-0.3c0.3,0,0.6,0,0.9,0h1c0-0.8,0-1-0.1-1.3l0.6,0.2c0.1,0,0.1,0.1,0.1,0.1c0,0.1-0.1,0.1-0.2,0.2v0.8h1l0.2-0.3
				c0-0.1,0.1-0.1,0.1-0.1c0,0,0.1,0,0.1,0.1l0.4,0.4c0,0,0.1,0.1,0.1,0.1C86.9,4,86.9,4,86.8,4h-1.8v1.3H86.7z"/>
			<path d="M93,5.8c0.4,0.7,1.4,1.5,2.5,1.6l0,0c-0.1,0.1-0.5,0.2-0.6,0.5c-1-0.5-1.7-1.4-2-2c0,0.6,0,1.1,0,1.4c0,0.1,0,0.7,0,0.8
				c0,0.3-0.3,0.3-0.3,0.3c-0.2,0-0.2-0.1-0.2-0.2c0-0.1,0-0.3,0-0.4c0-0.9,0-1.2,0-1.8c-0.5,0.7-1.4,1.5-2.4,1.9l0-0.1
				c1-0.7,1.8-1.6,2.2-2.2H91c-0.2,0-0.5,0-0.7,0.1l-0.1-0.3c0.3,0,0.6,0,0.9,0h1.5c0-0.7,0-0.8,0-1.8h-1.2c-0.2,0-0.5,0-0.7,0.1
				l-0.1-0.3c0.3,0,0.6,0,0.9,0h1.1c0-0.6,0-0.7-0.1-1l0.6,0.2c0,0,0.1,0,0.1,0.1c0,0-0.1,0.1-0.2,0.2c0,0.1,0,0.4,0,0.5h1.2
				l0.2-0.3c0,0,0.1-0.1,0.1-0.1c0,0,0.1,0,0.1,0.1l0.3,0.3c0,0,0.1,0.1,0.1,0.1c0,0.1-0.1,0.1-0.1,0.1h-1.9c0,0.8,0,0.9,0,1.8h0.4
				C93.6,5.1,94,4.3,94,4l0.6,0.3c0.1,0,0.1,0.1,0.1,0.1c0,0.1-0.1,0.1-0.3,0.1c-0.1,0.1-0.1,0.1-0.4,0.5c-0.2,0.3-0.4,0.4-0.5,0.5
				h1.1l0.3-0.3c0.1-0.1,0.1-0.1,0.1-0.1c0,0,0.1,0,0.1,0.1l0.4,0.3c0,0,0.1,0.1,0.1,0.1c0,0.1-0.1,0.1-0.1,0.1H93z M90.9,4.1
				c0.3,0.1,0.9,0.4,0.9,1c0,0.1-0.1,0.3-0.2,0.3c-0.2,0-0.2-0.2-0.3-0.3C91.3,5,91.2,4.6,90.9,4.1L90.9,4.1z"/>
			<path d="M102.1,5.4c-0.6,0.1-1.2,0.4-1.7,0.6c0,0.1,0.1,0.4,0.1,0.8c0,0.1,0,0.6-0.2,0.6c-0.2,0-0.2-0.4-0.2-0.5
				c0-0.1,0-0.5,0-0.6c-0.4,0.3-0.9,0.7-0.9,1.1c0,0.5,0.8,0.5,1,0.5c0.3,0,0.7-0.1,0.9-0.1c0.1,0,0.2,0,0.2,0
				c0.3,0,0.4,0.2,0.4,0.3c0,0.1-0.1,0.2-0.2,0.2c-0.1,0-0.7,0.1-0.9,0.1c-0.3,0-1.6,0-1.6-0.8c0-0.6,0.8-1.2,1.1-1.4
				c-0.1-0.3-0.1-0.7-0.5-0.7c-0.4,0-0.7,0.4-0.8,0.6c-0.3,0.5-0.3,0.5-0.4,0.5c-0.1,0-0.2-0.1-0.2-0.3c0-0.2,0.1-0.3,0.1-0.4
				c0.4-0.4,0.7-0.9,1-1.4c-0.2,0-0.4,0.1-0.5,0.1c-0.4,0-0.6-0.2-0.6-0.6C98.3,3.9,98.5,4,98.7,4c0.3,0,0.6-0.1,0.7-0.1
				c0.1-0.1,0.3-0.6,0.3-0.7c0-0.1-0.1-0.2-0.4-0.3c0.1-0.1,0.2-0.2,0.4-0.2c0.3,0,0.6,0.2,0.6,0.4c0,0.1-0.1,0.2-0.1,0.2
				c-0.1,0.2-0.1,0.2-0.3,0.5c0.1,0,0.7-0.3,0.9-0.3c0.1,0,0.3,0.1,0.3,0.2c0,0.1-0.1,0.1-0.1,0.2c-0.3,0.1-1,0.2-1.3,0.3
				C99.1,5,99,5.1,98.9,5.3c0.1-0.1,0.3-0.2,0.6-0.2c0.6,0,0.7,0.4,0.7,0.6c0.4-0.3,1-0.6,1.2-0.7c0.1-0.1,0.2-0.1,0.2-0.2
				c0-0.1,0-0.1-0.2-0.2c0,0,0.1,0,0.1,0c0.2,0,0.7,0.2,0.7,0.5C102.3,5.3,102.2,5.4,102.1,5.4z"/>
			<path d="M106.5,4.6l0.2-0.4c0-0.1,0.1-0.1,0.1-0.1c0,0,0.1,0,0.1,0l0.4,0.2c0,0,0.1,0,0.1,0.1c0,0,0,0.1-0.1,0.1l-1.4,0.5
				c0,0.3,0,1.5,0,1.6c0,0.1,0.1,0.1,0.4,0.1c0.3,0,0.4,0,0.6-0.9h0c0,0.1,0,0.5,0.1,0.7c0,0,0,0.1,0.1,0.1c0,0,0,0.1,0,0.1
				c0,0.1-0.1,0.3-0.2,0.3c-0.1,0.1-0.4,0.1-0.7,0.1c-0.9,0-0.9-0.2-0.9-0.5c0-0.2,0-1.3,0-1.5c-0.2,0.1-0.5,0.2-0.7,0.3l-0.2-0.2
				c0.3-0.1,0.6-0.1,0.9-0.3c0-0.8,0-1.5,0-1.7c0-0.2,0-0.4-0.1-0.5l0.6,0.2c0,0,0.1,0.1,0.1,0.1c0,0.1-0.1,0.1-0.2,0.2
				c0,0.2,0,1.3,0,1.5L106.5,4.6z M109.2,3.4l0.2-0.2c0,0,0.1-0.1,0.1-0.1c0,0,0.1,0,0.1,0.1l0.3,0.3c0,0,0.1,0.1,0.1,0.1
				c0,0-0.1,0.1-0.2,0.2c0,0.5,0,1.8-0.1,2.6c-0.2,1.4-0.5,1.8-1.4,2c0-0.2-0.1-0.4-0.6-0.8l0,0c0.1,0,0.4,0.1,0.7,0.1
				c0.3,0,0.5,0,0.6-0.5c0.2-0.7,0.2-1.4,0.2-3.7h-1.1c0,1,0,2.3-0.4,3.2c-0.3,0.7-1,1.5-2.4,1.7l0-0.1c1.3-0.5,1.9-1.2,2.1-1.9
				c0.3-0.9,0.3-2.5,0.3-2.9h-0.4c-0.1,0-0.4,0-0.7,0.1l-0.1-0.3c0.5,0,0.9,0,0.9,0H109.2z"/>
			<path d="M115.4,8c-0.2,0.2-0.6,0.5-0.9,0.6l0,0c1.1-0.8,1.4-2,1.4-3.2c0-0.4,0-1.6-0.5-1.6c-0.2,0-0.4,0.3-0.5,0.3
				c-0.2,0.4-0.6,1.4-0.6,2.1c0,0.1,0,0.4,0,0.5c0,0.1,0,0.2-0.1,0.2c-0.4,0-0.5-0.8-0.5-1.3c0-0.5,0.1-1.3,0.2-1.9c0,0,0-0.2,0-0.2
				c0-0.3-0.2-0.5-0.4-0.6c0.1,0,0.2,0,0.3,0c0.3,0,0.5,0.2,0.5,0.5c0,0.1,0,0.2-0.1,0.3C114.1,4,114,4.7,114,5.3
				c0,0.1,0,0.5,0.1,0.5c0,0,0,0,0.1-0.1c0.1-0.5,0.7-2.2,1.4-2.2c0.8,0,0.8,1.3,0.8,1.9C116.3,6.6,116.1,7.3,115.4,8z"/>
			<path d="M122,4.2h-0.9c0,0.2,0,1.1,0,1.2c0.1-0.1,0.8-0.3,1-0.3l0,0c-0.1,0.1-0.8,0.5-1,0.6c0,0.3,0,1.9,0,2.1
				c0,0.3,0,0.6-0.6,0.8c0-0.2-0.1-0.5-0.7-0.6v0c0.1,0,0.5,0,0.6,0c0.2,0,0.3,0,0.3-0.3V5.9c-0.4,0.2-0.6,0.3-0.7,0.4
				c0,0.1-0.1,0.2-0.1,0.2c0,0-0.1,0-0.1-0.1l-0.3-0.6c0.1,0,0.1,0,0.2,0c0.2,0,0.8-0.2,1-0.3c0-0.2,0-1.2,0-1.4h-0.2
				c-0.2,0-0.4,0-0.7,0.1L119.7,4c0.4,0,0.7,0,1,0c0-0.1,0-0.7,0-0.9c0-0.2-0.1-0.4-0.1-0.5l0.6,0.2c0.1,0,0.1,0.1,0.1,0.1
				c0,0-0.1,0.1-0.2,0.2c0,0.1,0,0.7,0,0.9h0.3l0.1-0.2c0,0,0-0.1,0.1-0.1s0.1,0,0.1,0.1l0.3,0.2C122.1,4,122.1,4,122,4.2
				C122.1,4.1,122.1,4.2,122,4.2z M125.1,3.5h-1.6c-0.1,0.5-0.4,1.2-0.7,1.8l0.2,0.1h1.3l0.2-0.2c0,0,0.1-0.1,0.1-0.1
				c0,0,0.1,0,0.1,0.1l0.3,0.2c0,0,0.1,0.1,0.1,0.1c0,0.1,0,0.1-0.2,0.2c0,0.4,0,0.9,0,1.2c0,0.2,0,1,0,1.2c0,0.3-0.2,0.3-0.3,0.3
				c-0.2,0-0.2-0.1-0.2-0.4H123c0,0.2,0,0.4-0.3,0.4c-0.1,0-0.2-0.1-0.2-0.2c0-0.1,0-0.3,0-0.4c0-0.3,0-0.6,0-1c0-0.3,0-0.8,0-1.1
				c-0.2,0.3-0.6,1-1.1,1.4l0,0c0.7-0.9,1.3-2.4,1.5-3.6h-0.4c-0.1,0-0.4,0-0.7,0.1l-0.1-0.3c0.4,0,0.8,0,0.9,0h1.7l0.2-0.3
				c0,0,0.1-0.1,0.1-0.1c0,0,0.1,0,0.1,0.1l0.4,0.3C125.1,3.3,125.2,3.4,125.1,3.5C125.2,3.5,125.1,3.5,125.1,3.5z M124.4,5.6H123
				v2.3h1.4V5.6z"/>
			<path d="M128.6,6.8c0,0.3,0,0.3,0,0.4c0,0,0,0.2,0,0.3c0,0.1-0.1,0.2-0.2,0.2c-0.3,0-0.5-0.6-0.5-1.4c0-0.1,0-0.7,0.1-1.3
				c0.1-0.4,0.2-1,0.2-1.1c0-0.3-0.1-0.4-0.2-0.6c0.4,0,0.7,0.5,0.7,0.7c0,0.1,0,0.1-0.1,0.3c-0.3,0.9-0.4,1.2-0.4,1.8
				c0,0.2,0,0.7,0.1,0.7c0,0,0.1-0.1,0.1-0.1c0-0.1,0.5-1.1,0.6-1.4l0,0C128.9,5.5,128.6,6.6,128.6,6.8z M132.5,4.5
				c-0.2,0.1-0.9,0.2-1.1,0.3c0,0.2,0,1.1,0,1.3c0,1-0.3,1.9-1.5,2.5l0-0.1c0.9-0.7,1.2-1.5,1.2-3.1c0-0.3,0-0.5,0-0.6
				c-0.1,0-0.6,0.1-0.7,0.1c-0.3,0-0.7-0.1-0.9-0.4c0.1,0,0.3,0.1,0.5,0.1c0,0,0.4,0,1-0.1c-0.1-1.1-0.1-1.3-0.6-1.4
				c0.1-0.1,0.2-0.2,0.4-0.2c0.1,0,0.6,0.1,0.6,0.4c0,0,0,0.2,0,0.3c0,0.2,0,0.6,0,0.8c0.3-0.1,0.4-0.1,0.7-0.2c0,0,0.1,0,0.2,0
				c0.1,0,0.3,0.1,0.3,0.3C132.6,4.5,132.6,4.5,132.5,4.5z"/>
			<path d="M135.7,8.3c-0.5,0-0.9-0.4-0.9-1c0-0.5,0.4-0.9,0.9-0.9c0.5,0,0.9,0.4,0.9,0.9C136.5,7.9,136.2,8.3,135.7,8.3z
				 M135.7,6.6c-0.4,0-0.7,0.3-0.7,0.8c0,0.4,0.3,0.8,0.7,0.8c0.4,0,0.7-0.3,0.7-0.8C136.4,7,136,6.6,135.7,6.6z"/>
		</g>
		<rect x="140.6" y="5.3" width="16.9" height="0.2"/>
		<rect x="38" y="5.3" width="16.9" height="0.2"/>
	</g>
	<g>
		<path class="st0" d="M38.9,25.8c0,0.1,0,0.2-0.2,0.2h-0.8c-0.1,0-0.2-0.1-0.1-0.2l0.6-0.6c0.1-0.1,0.2-0.1,0.3,0L38.9,25.8z
			 M40.2,26.6l-0.6-1.9c0-0.1-0.2-0.2-0.3-0.2h-0.6c-0.1,0-0.3,0.1-0.4,0.2l-1.7,1.9c-0.1,0.1-0.1,0.2,0.1,0.2h0.1
			c0.1,0,0.3-0.1,0.4-0.2l0.1-0.1c0.1-0.1,0.3-0.2,0.4-0.2h1.2c0.1,0,0.3,0.1,0.3,0.2l0,0.1c0,0.1,0.2,0.2,0.3,0.2H40
			C40.1,26.8,40.2,26.7,40.2,26.6z"/>
		<path class="st0" d="M43.1,25.5h-0.8c-0.1,0-0.3,0.1-0.3,0.2l-0.2,0.8c0,0.1-0.2,0.2-0.3,0.2h-0.5c-0.1,0-0.2-0.1-0.2-0.2l0.3-1.1
			c0-0.1,0.2-0.2,0.3-0.2h1.8c0.1,0,0.2,0.1,0.2,0.2C43.4,25.4,43.2,25.5,43.1,25.5z"/>
		<path class="st0" d="M45.6,25.5h-0.5c-0.1,0-0.3,0.1-0.3,0.2l-0.1,0.5c0,0.1,0,0.2,0.2,0.2h0.3c0.1,0,0.2,0.1,0.2,0.2
			c0,0.1-0.2,0.2-0.3,0.2h-1.3c-0.1,0-0.2-0.1-0.2-0.2l0.5-1.8c0-0.1,0.2-0.2,0.3-0.2h0.5c0.1,0,0.2,0.1,0.2,0.2l0,0.2
			c0,0.1,0,0.2,0.2,0.2h0.5c0.1,0,0.2,0.1,0.2,0.2C45.8,25.4,45.7,25.5,45.6,25.5z"/>
		<path class="st0" d="M48.5,26.8h-2.4c-0.1,0-0.2-0.1-0.2-0.2c0-0.1,0.2-0.2,0.3-0.2h1.6c0.1,0,0.3-0.1,0.3-0.2
			c0-0.1-0.1-0.2-0.2-0.2h-1.6c-0.1,0-0.2-0.1-0.2-0.2l0.1-0.5c0-0.1,0.2-0.2,0.3-0.2H49c0.1,0,0.2,0.1,0.2,0.2
			c0,0.1-0.2,0.2-0.3,0.2h-1.6c-0.1,0-0.3,0.1-0.3,0.2c0,0.1,0.1,0.2,0.2,0.2h1.6c0.1,0,0.2,0.1,0.2,0.2l-0.1,0.5
			C48.8,26.7,48.6,26.8,48.5,26.8z"/>
		<path class="st0" d="M53.5,26.8h-2.4c-0.1,0-0.2-0.1-0.2-0.2l0.4-1.1c0-0.1,0.2-0.2,0.3-0.2H54c0.1,0,0.2,0.1,0.2,0.2
			c0,0.1-0.2,0.2-0.3,0.2h-1.5c-0.1,0-0.3,0.1-0.3,0.2L52,26.2c0,0.1,0,0.2,0.2,0.2h1.5c0.1,0,0.2,0.1,0.2,0.2
			C53.8,26.7,53.6,26.8,53.5,26.8z"/>
		<path class="st0" d="M56.6,26.2c0,0.1-0.2,0.2-0.3,0.2h-0.6c-0.1,0-0.2-0.1-0.2-0.2l0.2-0.5c0-0.1,0.2-0.2,0.3-0.2h0.6
			c0.1,0,0.2,0.1,0.2,0.2L56.6,26.2z M57.3,26.6l0.3-1.1c0-0.1,0-0.2-0.2-0.2h-2.4c-0.1,0-0.3,0.1-0.3,0.2l-0.3,1.1
			c0,0.1,0,0.2,0.2,0.2H57C57.1,26.8,57.3,26.7,57.3,26.6z"/>
		<path class="st0" d="M58.6,26.8h-0.5c-0.1,0-0.2-0.1-0.2-0.2l0.6-1.9c0-0.1,0.2-0.2,0.3-0.2h0.5c0.1,0,0.2,0.1,0.2,0.2l-0.6,1.9
			C58.8,26.7,58.7,26.8,58.6,26.8z"/>
		<path class="st0" d="M60.1,26.8h-0.5c-0.1,0-0.2-0.1-0.2-0.2l0.6-1.9c0-0.1,0.2-0.2,0.3-0.2h0.5c0.1,0,0.2,0.1,0.2,0.2l-0.6,1.9
			C60.4,26.7,60.3,26.8,60.1,26.8z"/>
		<path class="st0" d="M63.4,25.7c0,0.1-0.2,0.2-0.3,0.2h-0.6c-0.1,0-0.2-0.1-0.2-0.2c0-0.1,0.2-0.2,0.3-0.2h0.6
			C63.4,25.5,63.5,25.6,63.4,25.7z M63.9,26.6c0-0.1-0.1-0.2-0.2-0.2h-1.5c-0.1,0-0.2-0.1-0.2-0.2c0-0.1,0.2-0.2,0.3-0.2h1.5
			c0.1,0,0.3-0.1,0.3-0.2l0.1-0.5c0-0.1,0-0.2-0.2-0.2h-2.4c-0.1,0-0.3,0.1-0.3,0.2L61,26.6c0,0.1,0,0.2,0.2,0.2h2.4
			C63.8,26.8,63.9,26.7,63.9,26.6z"/>
		<path class="st0" d="M66.6,26.2c0,0.1-0.2,0.2-0.3,0.2h-0.6c-0.1,0-0.2-0.1-0.2-0.2l0.2-0.5c0-0.1,0.2-0.2,0.3-0.2h0.6
			c0.1,0,0.2,0.1,0.2,0.2L66.6,26.2z M67.3,27.2l0.5-1.8c0-0.1,0-0.2-0.2-0.2h-2.4c-0.1,0-0.3,0.1-0.3,0.2l-0.3,1.1
			c0,0.1,0,0.2,0.2,0.2h1.5c0.1,0,0.2,0.1,0.2,0.2c0,0.1-0.2,0.2-0.3,0.2h-1.5c-0.1,0-0.3,0.1-0.3,0.2c0,0.1,0.1,0.2,0.2,0.2H67
			C67.1,27.5,67.2,27.3,67.3,27.2z"/>
		<path class="st0" d="M70.4,25.7c0,0.1-0.2,0.2-0.3,0.2h-0.6c-0.1,0-0.2-0.1-0.2-0.2c0-0.1,0.2-0.2,0.3-0.2h0.6
			C70.4,25.5,70.5,25.6,70.4,25.7z M71,26.6c0-0.1-0.1-0.2-0.2-0.2h-1.5c-0.1,0-0.2-0.1-0.2-0.2c0-0.1,0.2-0.2,0.3-0.2h1.5
			c0.1,0,0.3-0.1,0.3-0.2l0.1-0.5c0-0.1,0-0.2-0.2-0.2h-2.4c-0.1,0-0.3,0.1-0.3,0.2l-0.3,1.1c0,0.1,0,0.2,0.2,0.2h2.4
			C70.8,26.8,70.9,26.7,71,26.6z"/>
		<path class="st0" d="M75.7,25.8c-0.1,0.1-0.2,0.3-0.3,0.4l-0.1,0.3c0,0.1-0.2,0.2-0.3,0.2h-0.5c-0.1,0-0.2-0.1-0.2-0.2l0.1-0.3
			c0-0.1,0-0.3,0-0.4l-0.6-1.1c-0.1-0.1,0-0.2,0.1-0.2h0.6c0.1,0,0.3,0.1,0.4,0.2l0.4,0.7c0.1,0.1,0.2,0.1,0.3,0l0.8-0.7
			c0.1-0.1,0.3-0.2,0.5-0.2H77c0.1,0,0.1,0.1,0,0.2L75.7,25.8z"/>
		<path class="st0" d="M79.7,26.2c0,0.1-0.2,0.2-0.3,0.2h-1c-0.1,0-0.2-0.1-0.2-0.2l0.3-1.1c0-0.1,0.2-0.2,0.3-0.2h1
			c0.1,0,0.2,0.1,0.2,0.2L79.7,26.2z M80.4,26.6l0.5-1.8c0-0.1,0-0.2-0.2-0.2H78c-0.1,0-0.3,0.1-0.3,0.2l-0.5,1.8
			c0,0.1,0,0.2,0.2,0.2h2.8C80.2,26.8,80.3,26.7,80.4,26.6z"/>
		<path class="st0" d="M84.2,26.8h-0.7c-0.1,0-0.3-0.1-0.4-0.2L82.6,26c-0.1-0.1-0.2-0.1-0.4,0c-0.1,0.1-0.3,0.2-0.3,0.4l-0.1,0.2
			c0,0.1-0.2,0.2-0.3,0.2h-0.5c-0.1,0-0.2-0.1-0.2-0.2l0.5-1.8c0-0.1,0.2-0.2,0.3-0.2h0.5c0.1,0,0.2,0.1,0.2,0.2l-0.2,0.6
			c0,0.1,0,0.2,0.2,0.1l1.4-0.8c0.1-0.1,0.3-0.1,0.5-0.1h0.3c0.1,0,0.1,0.1,0,0.1l-1.2,0.6c-0.1,0.1-0.2,0.2-0.1,0.3l0.9,1
			C84.4,26.7,84.3,26.8,84.2,26.8z"/>
		<path class="st0" d="M87.5,26.2c0,0.1-0.2,0.2-0.3,0.2h-1c-0.1,0-0.2-0.1-0.2-0.2l0.3-1.1c0-0.1,0.2-0.2,0.3-0.2h1
			c0.1,0,0.2,0.1,0.2,0.2L87.5,26.2z M88.2,26.6l0.6-1.8c0-0.1,0-0.2-0.2-0.2h-2.8c-0.1,0-0.3,0.1-0.3,0.2L85,26.6
			c0,0.1,0,0.2,0.2,0.2h2.8C88,26.8,88.2,26.7,88.2,26.6z"/>
		<path class="st0" d="M91.7,26.8h-0.3c-0.1,0-0.2-0.1-0.2-0.2l0.1-0.4c0-0.1,0-0.2-0.2-0.2h-1c-0.1,0-0.3,0.1-0.3,0.2l-0.1,0.4
			c0,0.1-0.2,0.2-0.3,0.2H89c-0.1,0-0.2-0.1-0.2-0.2l0.5-1.8c0-0.1,0.2-0.2,0.3-0.2h0.5c0.1,0,0.2,0.1,0.2,0.2l-0.1,0.4
			c0,0.1,0,0.2,0.2,0.2h1c0.1,0,0.3-0.1,0.3-0.2l0.1-0.4c0-0.1,0.2-0.2,0.3-0.2h0.3c0.1,0,0.2,0.1,0.2,0.2L92,26.6
			C92,26.7,91.9,26.8,91.7,26.8z"/>
		<path class="st0" d="M95.1,25.8c0,0.1,0,0.2-0.2,0.2h-0.8c-0.1,0-0.2-0.1-0.1-0.2l0.6-0.6c0.1-0.1,0.2-0.1,0.3,0L95.1,25.8z
			 M96.4,26.6l-0.6-1.9c0-0.1-0.2-0.2-0.3-0.2h-0.7c-0.1,0-0.3,0.1-0.4,0.2l-1.7,1.9c-0.1,0.1-0.1,0.2,0.1,0.2h0.1
			c0.1,0,0.3-0.1,0.4-0.2l0.1-0.1c0.1-0.1,0.3-0.2,0.4-0.2H95c0.1,0,0.3,0.1,0.3,0.2l0,0.1c0,0.1,0.2,0.2,0.3,0.2h0.6
			C96.3,26.8,96.4,26.7,96.4,26.6z"/>
		<path class="st0" d="M100.3,26.8h-0.4c-0.1,0-0.2-0.1-0.2-0.2l0.3-1.1c0-0.1,0-0.1-0.1,0l-0.9,1.1c-0.1,0.1-0.3,0.2-0.4,0.2h-0.3
			c-0.1,0-0.3-0.1-0.3-0.2l-0.2-1.1c0-0.1-0.1-0.1-0.1,0l-0.3,1.1c0,0.1-0.2,0.2-0.3,0.2c-0.1,0-0.2-0.1-0.2-0.2l0.5-1.8
			c0-0.1,0.2-0.2,0.3-0.2h0.6c0.1,0,0.3,0.1,0.3,0.2l0.2,1.1c0,0.1,0.1,0.1,0.2,0l0.9-1.1c0.1-0.1,0.3-0.2,0.4-0.2h0.6
			c0.1,0,0.2,0.1,0.2,0.2l-0.5,1.8C100.6,26.7,100.4,26.8,100.3,26.8z"/>
		<path class="st0" d="M103.6,25.8c0,0.1,0,0.2-0.2,0.2h-0.8c-0.1,0-0.2-0.1-0.1-0.2l0.6-0.6c0.1-0.1,0.2-0.1,0.3,0L103.6,25.8z
			 M104.9,26.6l-0.6-1.9c0-0.1-0.2-0.2-0.3-0.2h-0.6c-0.1,0-0.3,0.1-0.4,0.2l-1.7,1.9c-0.1,0.1-0.1,0.2,0.1,0.2h0.1
			c0.1,0,0.3-0.1,0.4-0.2l0.1-0.1c0.1-0.1,0.3-0.2,0.4-0.2h1.2c0.1,0,0.3,0.1,0.3,0.2l0,0.1c0,0.1,0.2,0.2,0.3,0.2h0.6
			C104.9,26.8,105,26.7,104.9,26.6z"/>
	</g>
	<g>
		<path class="st0" d="M45.2,17.2c-0.1,0.2-0.5,0.3-0.7,0.3h-1.9c-0.2,0-0.3-0.1-0.1-0.3l2.5-2.9c0.2-0.2,0.1-0.3-0.1-0.3h-7.2
			c-0.2,0-0.3-0.2-0.2-0.4l0.2-0.3c0.1-0.2,0.4-0.4,0.6-0.4h10.3c0.2,0,0.3,0.1,0.1,0.3L45.2,17.2z M40.2,19.7
			c-0.1,0.2-0.4,0.4-0.6,0.4h-2.2c-0.2,0-0.3-0.2-0.2-0.4l2.5-4.1c0.1-0.2,0.4-0.4,0.6-0.4h2.2c0.2,0,0.3,0.2,0.2,0.4L40.2,19.7z"/>
		<path class="st0" d="M54.3,17.2c-0.1,0.2-0.4,0.4-0.6,0.4H47c-0.2,0-0.3-0.1-0.1-0.3l1-1.1c0.2-0.2,0.5-0.3,0.7-0.3h6.2
			c0.2,0,0.3,0.2,0.2,0.3L54.3,17.2z"/>
		<path class="st0" d="M62.9,19.7c-0.1,0.2-0.4,0.4-0.6,0.4H60c-0.2,0-0.3-0.2-0.2-0.4l3.8-6.3c0.1-0.2,0.4-0.4,0.6-0.4h2.2
			c0.2,0,0.3,0.2,0.2,0.4L62.9,19.7z M58.7,16.5c-0.2,0-0.3-0.2-0.2-0.4l1.7-2.8c0.1-0.2,0.4-0.4,0.6-0.4h0.9c0.2,0,0.3,0.2,0.2,0.4
			l-1.7,2.8c-0.1,0.2-0.4,0.4-0.6,0.4H58.7z M56,16.5c-0.2,0-0.3-0.2-0.2-0.4l1.7-2.8c0.1-0.2,0.4-0.4,0.6-0.4H59
			c0.2,0,0.3,0.2,0.2,0.4l-1.7,2.8c-0.1,0.2-0.4,0.4-0.6,0.4H56z"/>
		<path class="st0" d="M73.4,20c-0.2,0-0.4-0.2-0.3-0.4l1.4-4.5c0.1-0.2-0.1-0.4-0.3-0.4h-2.3c-0.2,0-0.5,0.2-0.6,0.4l-2.6,4.6
			C68.5,19.9,68.2,20,68,20h-1.2c-0.2,0-0.3-0.2-0.2-0.4l2.6-4.6c0.1-0.2,0-0.4-0.2-0.4h-1.4c-0.2,0-0.3-0.2-0.2-0.4l0.2-0.3
			c0.1-0.2,0.4-0.4,0.6-0.4h1.4c0.2,0,0.5-0.2,0.6-0.4l0.3-0.5c0.1-0.2,0.4-0.4,0.6-0.4h1.2c0.2,0,0.3,0.2,0.2,0.4l-0.3,0.5
			c-0.1,0.2,0,0.4,0.2,0.4h5.1c0.2,0,0.4,0.2,0.3,0.4l-1.7,5.5c-0.1,0.2-0.3,0.4-0.5,0.4H73.4z"/>
		<path class="st0" d="M78.5,20c-0.2,0-0.4-0.1-0.3-0.4l0.1-0.5c0.1-0.2,0.2-0.6,0.2-0.8l1.6-5.2c0.1-0.2,0.3-0.4,0.5-0.4H83
			c0.2,0,0.4,0.2,0.3,0.4L81.8,18c-0.1,0.2,0.1,0.4,0.3,0.4l5.9-0.6c0.2,0,0.3,0.1,0.2,0.3l-0.3,0.6c-0.1,0.2-0.4,0.4-0.6,0.4
			L78.5,20z"/>
		<path class="st0" d="M95.7,19.7c-0.1,0.2-0.4,0.4-0.6,0.4h-1.7c-0.2,0-0.3-0.2-0.2-0.4l2.6-4.3c0.1-0.2,0.4-0.4,0.6-0.4h1.7
			c0.2,0,0.3,0.2,0.2,0.4L95.7,19.7z M91.9,17.7c-0.2,0-0.3-0.2-0.2-0.4l1.3-2.1c0.1-0.2,0.4-0.4,0.6-0.4h0.9c0.2,0,0.3,0.2,0.2,0.4
			l-1.3,2.1c-0.1,0.2-0.4,0.4-0.6,0.4H91.9z M89.3,17.7c-0.2,0-0.3-0.2-0.2-0.4l1.3-2.1c0.1-0.2,0.4-0.4,0.6-0.4H92
			c0.2,0,0.3,0.2,0.2,0.4l-1.3,2.1c-0.1,0.2-0.4,0.4-0.6,0.4H89.3z"/>
		<path class="st0" d="M104.4,19.8c-0.2,0.1-0.5,0.3-0.7,0.3h-2.7c-0.2,0-0.3-0.1-0.1-0.3l6.8-5.5c0.2-0.1,0.5-0.3,0.7-0.3h2.7
			c0.2,0,0.3,0.1,0.1,0.3L104.4,19.8z M110.5,13.6c-0.2,0-0.3-0.1-0.1-0.3l0.3-0.2c0.2-0.1,0.5-0.3,0.7-0.3h0.8
			c0.2,0,0.3,0.1,0.1,0.3l-0.3,0.2c-0.2,0.1-0.5,0.3-0.7,0.3H110.5z M108.6,13.6c-0.2,0-0.3-0.1-0.1-0.3l0.3-0.2
			c0.2-0.1,0.5-0.3,0.7-0.3h0.7c0.2,0,0.3,0.1,0.1,0.3l-0.3,0.2c-0.2,0.1-0.5,0.3-0.7,0.3H108.6z M104,13.9
			c-0.1,0.2-0.4,0.4-0.6,0.4h-3.2c-0.2,0-0.3-0.2-0.2-0.4l0.3-0.5c0.1-0.2,0.4-0.4,0.6-0.4h3.2c0.2,0,0.3,0.2,0.2,0.4L104,13.9z
			 M99.5,16.5c-0.2,0-0.3-0.2-0.2-0.4l0.3-0.5c0.1-0.2,0.4-0.4,0.6-0.4h3.2c0.2,0,0.3,0.2,0.2,0.4l-0.3,0.5
			c-0.1,0.2-0.4,0.4-0.6,0.4H99.5z"/>
	</g>
	<g>
		<path class="st1" d="M112.2,20c-0.2,0-0.4-0.2-0.3-0.4l0.1-0.2c0.1-0.2,0.3-0.4,0.5-0.4h5.7c0.2,0,0.5-0.2,0.5-0.4l0.4-1.2
			c0.1-0.2-0.1-0.4-0.3-0.4h-5.2c-0.2,0-0.4-0.2-0.3-0.4l0.1-0.2c0.1-0.2,0.3-0.4,0.5-0.4h5.2c0.2,0,0.5-0.2,0.5-0.4l0.4-1.2
			c0.1-0.2-0.1-0.4-0.3-0.4H114c-0.2,0-0.4-0.2-0.3-0.4l0.1-0.2c0.1-0.2,0.3-0.4,0.5-0.4h8.8c0.2,0,0.4,0.2,0.3,0.4l-1.9,6.3
			c-0.1,0.2-0.3,0.4-0.5,0.4H112.2z"/>
		<path class="st1" d="M123,20c-0.2,0-0.4-0.2-0.3-0.4l0.1-0.2c0.1-0.2,0.3-0.4,0.5-0.4h5.7c0.2,0,0.5-0.2,0.5-0.4l1.3-4.2
			c0.1-0.2-0.1-0.4-0.3-0.4h-5.7c-0.2,0-0.4-0.2-0.3-0.4l0.1-0.2c0.1-0.2,0.3-0.4,0.5-0.4h8.8c0.2,0,0.4,0.2,0.3,0.4l-1.9,6.3
			c-0.1,0.2-0.3,0.4-0.5,0.4H123z"/>
		<path class="st1" d="M141.7,20c-0.2,0-0.4-0.2-0.4-0.4l0.3-6.2c0-0.2,0.2-0.4,0.4-0.4h2.5c0.2,0,0.4,0.2,0.4,0.4l-0.3,6.2
			c0,0.2-0.2,0.4-0.4,0.4H141.7z M135.9,19.7c-0.1,0.2-0.4,0.3-0.6,0.3h-1.4c-0.2,0-0.3-0.2-0.2-0.3l4.2-6.4
			c0.1-0.2,0.4-0.3,0.6-0.3h1.4c0.2,0,0.3,0.2,0.2,0.3L135.9,19.7z"/>
		<path class="st1" d="M153.5,17.7c-0.1,0.2-0.5,0.3-0.7,0.3H151c-0.2,0-0.4,0.2-0.3,0.4l0.4,1.2c0.1,0.2-0.1,0.4-0.3,0.4h-2.2
			c-0.2,0-0.5-0.2-0.5-0.4l-0.9-3.2c-0.1-0.2,0.1-0.4,0.3-0.4h2.2c0.2,0,0.5,0.2,0.5,0.4l0.2,0.8c0.1,0.2,0.2,0.3,0.4,0.1l2.6-3
			c0.1-0.2,0.1-0.3-0.1-0.3h-6.7c-0.2,0-0.4-0.2-0.3-0.4l0.1-0.2c0.1-0.2,0.3-0.4,0.5-0.4h10.3c0.2,0,0.3,0.1,0.1,0.3L153.5,17.7z"
			/>
	</g>
	<path class="st1" d="M30.9,10.9c-0.2-2.1-0.8-5.2-2.7-7.1c-1.7-1.7-5-2.1-7.4-1.5C13.9,4.2,6.7,14.9,3.2,21.3
		c-2,3.7-2.5,6.5,0.3,6.5c2.8,0,3.8-4.6,12.5-5.1c6.2-0.4,3.6,5.6,9.2,5.6c2.9,0,4.6-3.1,5.3-6.3C31.3,18.3,31.1,13.6,30.9,10.9z
		 M24.9,10.5c-0.3,0.6-1.2,1.6-2.3,1.9c-1.3,0.3-2.7,0.4-4.1,0.6c-4.8,0.7-7.1,2-8.4,2.7c-1.6,0.8,1.5-3.7,2.5-5
		c2.6-3.3,4.8-5.4,7.8-6c1.2-0.2,2.3-0.1,3.4,0.5C25,5.8,26.1,8,24.9,10.5z"/>
	<path class="st0" d="M113.8,24.4c0.2-0.2,0.5-0.6,0.5-0.7l0.3,0.1c-0.1,0.2-0.3,0.4-0.5,0.6h0.6l-0.3,1h-0.4l0.2-0.6h-3.1l-0.2,0.6
		h-0.4l0.3-1h0.6c0-0.2-0.1-0.5-0.2-0.6l0.4-0.1c0.1,0.2,0.2,0.4,0.2,0.6l-0.2,0.1H113.8z M112.9,24.4c0-0.2-0.1-0.4-0.2-0.6
		l0.4-0.1c0.1,0.2,0.1,0.4,0.2,0.6L112.9,24.4z M114,25.4c-0.4,0.3-0.8,0.5-1.3,0.7l0,0.1h1.8l-0.1,0.3h-1.8l-0.2,0.9
		c-0.1,0.3-0.3,0.3-0.4,0.3h-0.8l0-0.4l0.7,0c0.1,0,0.2,0,0.2-0.1l0.2-0.7h-1.9l0.1-0.3h1.9l0.1-0.4h0.2c0.2-0.1,0.5-0.2,0.8-0.4
		h-2.1l0.1-0.3h2.6L114,25.4z"/>
	<path class="st0" d="M116.2,26.3c-0.1-0.3-0.2-0.4-0.2-0.7l-0.6,2.1h-0.3l0.6-2.1c-0.4,0.6-0.6,0.9-0.8,1.1l0-0.4
		c0.2-0.2,0.6-0.6,1-1.4h-0.6l0.1-0.3h0.6l0.2-0.9h0.3l-0.2,0.9h0.5l-0.1,0.3h-0.5l-0.1,0.2c0.1,0.5,0.2,0.7,0.4,0.9L116.2,26.3z
		 M118.4,23.7l-0.1,0.5h1.1l-0.1,0.3h-2.6l0.1-0.3h1.1l0.1-0.5H118.4z M115.8,27.4c0.6-0.2,1-0.4,1.3-0.6c-0.3-0.5-0.3-0.9-0.3-1.1
		l0.3-0.1c0,0.5,0.2,0.8,0.3,1c0.4-0.3,0.6-0.7,0.8-1l0.3,0.1c-0.4,0.6-0.7,0.9-0.9,1.1c0.3,0.3,0.6,0.5,1,0.6l-0.3,0.4
		c-0.6-0.2-0.9-0.4-1.1-0.7c-0.5,0.3-1,0.5-1.4,0.7L115.8,27.4z M118.9,25.6c-0.3-0.3-0.5-0.6-0.6-0.8l0.3-0.2
		c0.2,0.4,0.4,0.5,0.6,0.7L118.9,25.6z M116.5,25.4c0.3-0.2,0.6-0.4,0.9-0.7l0.3,0.2c-0.3,0.4-0.8,0.7-1,0.8L116.5,25.4z"/>
	<path class="st0" d="M120.4,25.3c-0.2-0.2-0.4-0.3-0.6-0.4l-0.3,0.3c0.3,0.1,0.4,0.3,0.6,0.5L120.4,25.3z M122.1,26.4
		c0.2,0.3,0.3,0.7,0.3,0.7c-0.6,0.1-0.9,0.1-1.6,0.1c0.2-0.3,0.7-1,1-1.4h1.6l0.1-0.3h-1.3l0.2-0.8h1.1l0.1-0.3h-1.1l0.2-0.7h-0.4
		l-0.2,0.7h-1.1l-0.1,0.3h1.1l-0.2,0.8h-1.3l-0.1,0.3h0.9c-0.2,0.4-0.8,1.2-1,1.4c-0.1,0-0.3,0-0.3,0l0,0.3c0.6,0,1.9-0.1,2.5-0.2
		c0.1,0.2,0.1,0.3,0.1,0.4l0.4-0.2c-0.1-0.6-0.3-0.9-0.5-1.4L122.1,26.4z M120.9,24.2c-0.2-0.2-0.4-0.4-0.6-0.5L120,24
		c0.2,0.1,0.4,0.3,0.6,0.5L120.9,24.2z M119.1,27.7c0.5-0.4,1-1.1,1.3-1.5l-0.2-0.2c-0.4,0.5-0.7,1-1.2,1.4L119.1,27.7z"/>
	<path class="st0" d="M126.6,23.7l-0.1,0.5c0,0.1-0.1,0.6-0.1,1.1c0,1.1,0.6,1.7,1.2,2.1l-0.3,0.3c-0.2-0.1-0.6-0.4-0.9-1
		c-0.3-0.6-0.3-1.2-0.3-1.5c-0.2,0.5-0.6,1-1,1.4c-0.4,0.4-1,0.8-1.5,1l-0.2-0.3c0.8-0.4,1.5-0.9,1.9-1.5c0.5-0.7,0.7-1.5,0.8-1.6
		l0.1-0.5H126.6z"/>
	<path class="st0" d="M130.4,24.6c-0.1,0.3-0.2,0.8-0.4,1.1l0.3,0.1c0-0.1,0.1-0.2,0.3-0.6c0.1-0.3,0.2-0.5,0.2-0.6L130.4,24.6z
		 M131.1,23.7l-1.1,4.1h0.4l1.1-4.1H131.1z M133,23.7L133,24h-1.1l-0.1,0.3h1.1l-0.1,0.3h-1l-0.1,0.3h1l-0.1,0.3h-1.2l-0.1,0.3h2.7
		l0.1-0.3H133l0.1-0.3h1l0.1-0.3h-1l0.1-0.3h1.1l0.1-0.3h-1.1l0.1-0.3H133z M131.6,24.9c0-0.2-0.1-0.5-0.1-0.5l-0.3,0.1
		c0,0.1,0.1,0.3,0.1,0.5L131.6,24.9z M133.9,25.6h-2.3l-0.6,2.1h0.3l0.2-0.8h1.6l-0.1,0.3c0,0.1,0,0.1-0.1,0.1h-0.5l0,0.3h0.5
		c0.4,0,0.4-0.1,0.5-0.4L133.9,25.6z M133.4,26.2h-1.6l0.1-0.3h1.6L133.4,26.2z M133.2,26.7h-1.6l0.1-0.3h1.6L133.2,26.7z"/>
	<path class="st0" d="M135.2,25.8c0-0.2,0-0.4,0-0.6h0.8c-0.1,0.2-0.2,0.5-0.3,0.6H135.2z M138,27.4c-0.2-0.2-0.3-0.4-0.4-0.5
		c0.5-0.6,0.7-1.2,0.8-1.5H137l0.3-1.2h1c-0.2,0.6-0.3,0.7-0.4,0.7l-0.4,0l0,0.3h0.5c0.3,0,0.3-0.1,0.4-0.2c0.1-0.1,0.3-0.6,0.4-1.1
		h-1.7l-1,3.9h0.3l0.5-2h1c-0.1,0.1-0.2,0.5-0.5,0.9c-0.1-0.2-0.1-0.4-0.1-0.7l-0.3,0.1c0,0.2,0,0.5,0.2,1c-0.3,0.3-0.5,0.4-0.6,0.5
		l0.1,0.3c0.1-0.1,0.4-0.2,0.6-0.5c0.2,0.3,0.3,0.4,0.4,0.5L138,27.4z M135.8,23.7l-0.1,0.4H135l-0.1,0.3h0.7l-0.1,0.5h-0.9
		l-0.1,0.3h0.3c0,0.1,0,0.4,0,0.6h-0.4l-0.1,0.3h0.8l-0.1,0.5h-0.7l-0.1,0.3h0.7l-0.2,0.8h0.3l0.2-0.8h0.7l0.1-0.3h-0.7l0.1-0.5h0.8
		l0.1-0.3H136c0.1-0.1,0.2-0.4,0.3-0.6h0.3l0.1-0.3h-0.9l0.1-0.5h0.7l0.1-0.3h-0.7l0.1-0.4H135.8z"/>
	<path class="st0" d="M142.1,24.6c-0.5,0.9-1.1,1.4-1.4,1.7c-0.2-0.2-0.5-0.8-0.5-1.7H142.1z M142.4,27.4c-0.3-0.1-1-0.2-1.5-0.8
		c0,0,0,0,0,0c0.7-0.5,1.2-1.2,1.6-1.9h0.7l0.1-0.4h-1.8l0.2-0.6h-0.4l-0.2,0.6h-1.8l-0.1,0.4h0.7c0,0.8,0.2,1.4,0.5,1.9
		c-0.3,0.2-0.5,0.3-0.9,0.5c-0.5,0.2-0.9,0.3-1.1,0.3l0.1,0.4c0.4-0.1,1.2-0.3,2-0.9c0.4,0.5,1,0.7,1.6,0.9L142.4,27.4z"/>
	<path class="st0" d="M143.7,27.7h-0.4l0.6-2.4c-0.3,0.3-0.4,0.4-0.6,0.5l-0.1-0.4c0.7-0.5,1.2-1.2,1.5-1.8l0.3,0.1
		c-0.1,0.2-0.3,0.5-0.7,1L143.7,27.7z M147.5,24.8c-0.6,0.4-1.4,0.7-1.9,0.8l-0.4,1.5c0,0.2,0,0.2,0.1,0.2h1c0.1,0,0.2-0.1,0.2-0.1
		c0.1-0.1,0.2-0.5,0.2-0.7l0.3,0.1c-0.1,0.3-0.2,0.7-0.3,0.8c-0.1,0.2-0.2,0.2-0.5,0.2h-1.2c-0.2,0-0.4,0-0.3-0.4l1-3.6h0.4
		l-0.4,1.6c0.4-0.1,1.1-0.4,1.6-0.8L147.5,24.8z"/>
	<path class="st0" d="M151,24.4c0.2-0.2,0.5-0.6,0.5-0.7l0.3,0.1c-0.1,0.2-0.3,0.4-0.5,0.6h0.6l-0.3,1h-0.4l0.2-0.6h-3.1l-0.2,0.6
		h-0.4l0.3-1h0.6c0-0.2-0.1-0.5-0.2-0.6l0.4-0.1c0.1,0.2,0.2,0.4,0.2,0.6l-0.2,0.1H151z M150,24.4c0-0.2-0.1-0.4-0.2-0.6l0.4-0.1
		c0.1,0.2,0.1,0.4,0.2,0.6L150,24.4z M151.1,25.4c-0.4,0.3-0.8,0.5-1.3,0.7l0,0.1h1.8l-0.1,0.3h-1.8l-0.2,0.9
		c-0.1,0.3-0.3,0.3-0.4,0.3h-0.8l0-0.4l0.7,0c0.1,0,0.2,0,0.2-0.1l0.2-0.7h-1.9l0.1-0.3h1.9l0.1-0.4h0.2c0.2-0.1,0.5-0.2,0.8-0.4h-2
		l0.1-0.3h2.6L151.1,25.4z"/>
	<path class="st0" d="M154.9,25.9h-1.6l0.1-0.3h1.6L154.9,25.9z M155.1,26.1L155.1,26.1l0.2-0.8h-2.2l-0.2,0.8h0.8
		c-0.2,0.1-0.6,0.4-1.2,0.6l0.1,0.3c0.6-0.3,0.8-0.4,1.2-0.6l-0.2,0.7h0.3l0.2-0.7c0.3,0.4,0.7,0.6,0.9,0.7l0.3-0.3
		c-0.1,0-0.3-0.1-0.5-0.2c0.2-0.2,0.4-0.3,0.5-0.4L155.1,26.1z M155,26.1c-0.1,0.1-0.3,0.3-0.5,0.4c-0.1-0.1-0.2-0.2-0.3-0.4H155z
		 M156.5,23.9h-3.6l-1,3.9h0.3l0.1-0.2h2.9l-0.1,0.2h0.3L156.5,23.9z M155.2,27.2h-2.9l0.8-3.1h2.9L155.2,27.2z M155.7,24.4h-1
		l0.1-0.2h-0.3l-0.1,0.2h-1l-0.1,0.2h1l-0.1,0.2h-1.2l-0.1,0.2h2.7l0.1-0.2h-1.2l0.1-0.2h1L155.7,24.4z"/>
</g>
<g>
	<path class="st2" d="M187.8,5.5v21H167v-21H187.8z M184.9,8.3h-15v15.4h15V8.3z M181.7,19.9h2.4v2.4h-13.5v-2.4h5v-3.1h-4.2v-2.2
		h4.2v-2.4H171V9.7h12.8v2.4h-5.4v2.4h4.9v2.2H182c0.6,1.1,0.9,2,1.1,2.6L181.7,19.9z M180.9,16.7h-2.4v3.1h2.3
		c-0.3-1.1-0.7-1.9-1.1-2.7L180.9,16.7z"/>
	<path class="st2" d="M198.1,14.7c0.6-0.3,1.5-0.7,2.6-1.7c-0.6-0.6-1.2-1.1-1.7-1.4c-0.2,0.2-0.3,0.2-0.5,0.4l-0.8-1.3
		c-0.6,1.6-0.6,1.8-0.9,2.5c0.5,0.7,1.9,2.9,1.9,6c0,1.2-0.3,3.6-2.8,3.6h-0.7l-0.8-2.8h0.8c0.4,0,0.9,0,0.9-1.2
		c0-0.4,0-2.6-1.7-5.3c0.6-1.8,1.2-3.8,1.4-5.6h-1.6v19.3h-2.7V5.2h6.7v2.6c-0.1,0.4-0.1,0.6-0.3,1.2c1.3-1.5,2.3-2.8,2.7-4.4
		l2.5,0.2c-0.1,0.3-0.2,0.5-0.3,0.9h2.5c0-0.2,0-0.2-0.1-0.6l2.3-0.3c0,0.3,0.1,0.5,0.2,0.8h5.7v2.6c-0.6,1.5-1.7,2.9-2.4,3.6
		c1,1.1,1.9,1.8,3,2.5l-1.8,2.3c-0.5-0.4-1.2-0.8-2.2-1.8v1.2h-8.1v-1.3c-1.2,1.2-1.9,1.6-2.5,2L198.1,14.7z M203.4,22.1
		c-1,1.7-2.5,3.5-4.4,4.7l-2.1-2c0.6-0.3,2.8-1.5,4.1-3.9L203.4,22.1z M213.4,20.4h-5.8v4.5c0,2.2-1.3,2.3-2.2,2.3h-2.7l-0.6-2.8h2
		c0.6,0,0.6-0.3,0.6-0.6v-3.4h-5.3v-2.6h14V20.4z M202.5,10.9c-0.4-0.3-0.6-0.4-1.8-1.1c-0.3,0.4-0.4,0.5-0.6,0.7
		c0.8,0.5,1.2,0.8,1.7,1.3C202.2,11.3,202.3,11.2,202.5,10.9z M202.1,7.8c-0.2,0.4-0.3,0.5-0.4,0.7c0.8,0.3,1.1,0.6,1.7,0.9
		c0.3-0.7,0.5-1.2,0.7-1.6H202.1z M209.2,13.6c-1.5-1.9-2.4-3.7-2.9-5.1c-0.9,2.8-2.5,4.7-2.9,5.1H209.2z M208.7,7.8
		c0.4,1.1,0.8,1.8,1.2,2.4c1-1.2,1.2-1.8,1.5-2.4H208.7z M212.2,26.8c-1.4-1.3-2.5-2.7-3.5-4.8l2.4-1.3c0.6,1.4,1.9,3.1,3.1,4
		L212.2,26.8z"/>
	<path class="st2" d="M216.1,15.3c0.6-1.9,0.8-3.9,0.7-5.9l1.9,0c0,2.6-0.1,5.2-0.7,7.2L216.1,15.3z M223,11.9
		c-0.2-0.8-0.3-1-0.8-2.1v17.4h-2.9V4.6h2.9v4.1l1.2-0.6c0.5,1,1,2,1.4,3L223,11.9z M230,4.6h3v1.3h5.8V8h-5.8v1.1h5.4V11h-5.4v1.1
		h6.3v2.2h-15.5v-2.2h6.2V11h-5.1V9.1h5.1V8h-5.8V5.8h5.8V4.6z M238.1,15.3v9.4c0,1.8-0.3,2.5-2.5,2.5h-3l-0.5-2.4h2.5
		c0.6,0,0.6-0.3,0.6-0.7v-0.8h-7.6v4h-2.8v-12H238.1z M227.6,17.3v1.1h7.6v-1.1H227.6z M227.6,20.3v1.2h7.6v-1.2H227.6z"/>
	<path class="st2" d="M246,4.6h2.9v1.6h3.6v2.6h-3.6v1.8h4.3v2.6h-1.3c-0.3,1.3-0.3,1.6-0.6,2.7h1.8v2.7h-4.2v2h3.7v2.7h-3.7v3.8
		H246v-3.8h-3.6v-2.7h3.6v-2h-4.1V16h1.8c-0.1-0.7-0.3-1.8-0.6-2.7h-1.3v-2.6h4.2V8.8h-3.6V6.2h3.6V4.6z M245.8,13.2
		c0.3,1.4,0.4,2.1,0.5,2.7h2.4c0.2-0.9,0.3-1.8,0.4-2.7H245.8z M256.4,24.9v2.2h-2.8V5.3h10c0,0.9-0.1,5.3-0.6,6.5
		c-0.1,0.4-0.5,1.3-1.9,1.3H258l-0.5-2.5h2.3c0.7,0,1,0,1.1-2.6h-4.4v6h7.4c-0.2,2.2-0.6,5.7-1.9,8.1c0.8,0.8,1.6,1.5,2.7,2.3
		l-1.5,2.7c-0.7-0.4-1.4-0.9-2.8-2.4c-0.7,1-1.4,1.7-2.3,2.5L256.4,24.9z M258.9,17.1c0.3,0.7,0.6,1.5,1.3,2.7
		c0.6-1.6,0.7-2.4,0.8-3.1h-4.6v8.2c0.7-0.6,1.3-1.1,2.3-2.4c-1.4-2.3-1.8-3.9-2-4.7L258.9,17.1z"/>
	<path class="st2" d="M273.2,13.1c1.8-0.4,5.7-1.4,10.2-3.8l1.5,3c-5.5,2.5-9.6,3.5-11.7,4v4.5c0,1.4,0.3,1.5,2.3,1.5h6.2
		c1.6,0,3.7-0.1,5.4-0.5l0.2,3.3c-1.2,0.2-3.2,0.3-4.7,0.3h-7.7c-2.6,0-5-0.4-5-3.8V6.3h3.3V13.1z M284.4,4.8
		c1.1,1.4,1.7,2.7,2.4,4.5l-1.8,1c-0.7-1.9-1.2-3-2.3-4.6L284.4,4.8z M287.9,3.7c1.1,1.5,1.7,2.9,2.4,4.5l-1.8,1
		c-0.7-1.9-1.2-2.9-2.3-4.6L287.9,3.7z"/>
	<path class="st2" d="M298.2,17.2c-1.4-0.8-3.6-1.9-7-2.9l1.2-2.7c1.8,0.4,4.4,1.2,7.1,2.7L298.2,17.2z M292.6,22.4
		c9-0.8,12.9-3.9,15.6-12.4l2.8,2c-3.4,9.2-8.2,12.6-17.7,13.8L292.6,22.4z M300.2,11.5c-3-1.6-5.5-2.3-7.1-2.7l1.2-2.6
		c3,0.6,5.6,1.8,7.2,2.5L300.2,11.5z M306.8,4.2c1,1.4,1.4,2.6,2.2,4.6l-1.9,0.9c-0.6-1.9-1-2.9-2.1-4.7L306.8,4.2z M310.7,4.1
		c1,1.6,1.5,2.9,2.1,4.7l-1.9,0.9c-0.6-2-1-3-2-4.7L310.7,4.1z"/>
	<path class="st2" d="M322.1,5.6h3.2v3h6.3v2.7c-2,2.2-3.7,3.9-6.3,5.9v8.9h-3.2v-6.9c-2.7,1.5-4.6,2.3-7.5,3.2l-1.5-2.9
		c4.1-1.1,9.7-3.1,14.4-8.1l-12.7,0.1v-3h7.3V5.6z M333,22.6c-2.9-2.3-5.3-3.5-6.6-4.1l1.8-2.4c2.2,0.9,4.7,2.3,6.5,3.6L333,22.6z"
		/>
	<path class="st2" d="M353.5,6.7c-1,4.9-2.8,7.8-4.3,10c3.6,2.9,4.9,3.9,7.8,6.8l-2.7,2.6c-1.5-1.6-3.5-3.9-7.1-7
		c-2.3,2.5-5.7,5.3-9.3,6.9l-1.8-2.7c3.5-1.5,5.9-3.2,8.5-6c2.6-2.8,3.9-5.4,4.7-7.7h-11.9v-3H353.5z"/>
	<path class="st2" d="M376.8,12.5v2.4c-1.3,1.2-3.6,2.6-5.7,3.5h9.7v2.8h-9.9v3.6c0,1.2-0.1,2.5-2.4,2.5h-4.7l-0.5-3h3.5
		c0.8,0,0.9-0.1,0.9-0.9v-2.2H358v-2.8h9.8v-1.6l1,0c0.3-0.1,1.9-0.6,3-1.6H362v-2.7H376.8z M361.5,8.3c-0.5-1.1-0.8-1.7-1.5-2.8
		l2.9-0.9c1,1.4,1.5,2.8,1.8,3.7h3.7c-0.7-1.7-1.2-2.4-1.6-3l2.9-0.9c0.7,1.2,1.2,2.2,1.8,3.9h2.7c0.3-0.5,0.7-1.3,1.5-3.8l3.2,0.8
		c-0.6,1.3-0.9,1.9-1.5,3h2.7V14h-2.9v-3h-15.7v3h-3V8.3H361.5z"/>
	<path class="st2" d="M387.1,8.2c-2,0.1-2.8,0.1-3.5,0.1l-0.5-2.7c2,0,6.1-0.3,8.9-1.1l1.1,2.8c-0.7,0.2-1.3,0.4-3.2,0.6v3h2.8v2.8
		h-2.8v0.2c1.1,1.8,2.2,2.9,3.1,3.7l-1.6,2.7c-0.9-1.2-1.2-1.7-1.5-2.4v9.4h-2.8v-9.3c-1.4,2.7-2.5,4.2-3.3,5.2l-1.1-3.6
		c1.7-1.4,3-3.6,4.1-5.9h-3.6v-2.8h3.8V8.2z M400.9,17.9V4.6h3v12.7l1.9-0.4l0.3,3l-2.2,0.5v6.9h-3v-6.3l-7.8,1.6l-0.4-3L400.9,17.9
		z M395,11.5c1.9,1.1,3,2,4.3,3.4l-2,2.2c-1.2-1.4-2.8-2.7-4.1-3.5L395,11.5z M396.2,5.4c1.7,0.8,3.2,2.1,4.3,3.4l-2,2.3
		c-1.5-1.7-2.1-2.3-4.1-3.6L396.2,5.4z"/>
</g>
</svg>
